<mxfile host="app.diagrams.net" modified="2023-11-11T14:43:07.062Z" agent="Mozilla/5.0 (Windows NT 10.0; Win64; x64) AppleWebKit/537.36 (KHTML, like Gecko) Chrome/119.0.0.0 Safari/537.36" etag="ntMw_ij9C-ieozv0dPDx" version="22.1.0" type="github">
  <diagram name="Page-1" id="vUb3NAVqbXniEyw0y6hE">
    <mxGraphModel dx="880" dy="438" grid="1" gridSize="10" guides="1" tooltips="1" connect="1" arrows="1" fold="1" page="1" pageScale="1" pageWidth="850" pageHeight="1100" math="0" shadow="0">
      <root>
        <mxCell id="0" />
        <mxCell id="1" parent="0" />
        <mxCell id="Ue-nq_6bgSbUksRvQ9ac-1" value="Title" style="text;strokeColor=none;fillColor=none;html=1;fontSize=24;fontStyle=1;verticalAlign=middle;align=center;" vertex="1" parent="1">
          <mxGeometry x="30" y="30" width="100" height="40" as="geometry" />
        </mxCell>
        <mxCell id="Ue-nq_6bgSbUksRvQ9ac-2" value="" style="swimlane;startSize=0;" vertex="1" parent="1">
          <mxGeometry x="325" y="90" width="200" height="450" as="geometry" />
        </mxCell>
        <mxCell id="Ue-nq_6bgSbUksRvQ9ac-3" value="&lt;font style=&quot;font-size: 14px;&quot;&gt;Upload Image&lt;/font&gt;" style="ellipse;whiteSpace=wrap;html=1;" vertex="1" parent="Ue-nq_6bgSbUksRvQ9ac-2">
          <mxGeometry x="40" y="20" width="120" height="70" as="geometry" />
        </mxCell>
        <mxCell id="Ue-nq_6bgSbUksRvQ9ac-4" value="&lt;font style=&quot;font-size: 14px;&quot;&gt;Process Image&lt;/font&gt;" style="ellipse;whiteSpace=wrap;html=1;" vertex="1" parent="Ue-nq_6bgSbUksRvQ9ac-2">
          <mxGeometry x="40" y="110" width="120" height="70" as="geometry" />
        </mxCell>
        <mxCell id="Ue-nq_6bgSbUksRvQ9ac-5" value="" style="ellipse;whiteSpace=wrap;html=1;" vertex="1" parent="Ue-nq_6bgSbUksRvQ9ac-2">
          <mxGeometry x="40" y="200" width="120" height="70" as="geometry" />
        </mxCell>
        <mxCell id="Ue-nq_6bgSbUksRvQ9ac-6" value="" style="ellipse;whiteSpace=wrap;html=1;" vertex="1" parent="Ue-nq_6bgSbUksRvQ9ac-2">
          <mxGeometry x="40" y="290" width="120" height="70" as="geometry" />
        </mxCell>
        <mxCell id="Ue-nq_6bgSbUksRvQ9ac-7" value="&lt;font style=&quot;font-size: 14px;&quot;&gt;User&lt;/font&gt;" style="shape=umlActor;verticalLabelPosition=bottom;verticalAlign=top;html=1;outlineConnect=0;" vertex="1" parent="1">
          <mxGeometry x="160" y="280" width="30" height="60" as="geometry" />
        </mxCell>
      </root>
    </mxGraphModel>
  </diagram>
</mxfile>
